<?xml version="1.0" encoding="UTF-8"?><!DOCTYPE svg PUBLIC "-//W3C//DTD SVG 1.1//EN" "http://www.w3.org/Graphics/SVG/1.1/DTD/svg11.dtd"><svg xmlns="http://www.w3.org/2000/svg" xmlns:xlink="http://www.w3.org/1999/xlink" version="1.1" id="Layer_1" x="0px" y="0px" width="135px" height="135px" viewBox="0 0 135 135" xml:space="preserve"><style type="text/css"><![CDATA[
	.st0{fill:#465652;}
	.st1{fill:#AAB9BA;}
	.st2{fill:#47C67B;}
	.st3{fill:#AAC8D1;}
	.st4{fill:none;stroke:#E83834;stroke-width:6;stroke-linecap:round;stroke-linejoin:round;stroke-miterlimit:10;}
	.st5{fill:#7BC67B;}
	.st6{fill:#7BC7FF;}
	.st7{fill:#7C34C1;}
	.st8{fill:#7C8D96;}
	.st9{fill:#AD2707;}
	.st10{fill:#ADB8BC;}
	.st11{fill:#107510;}
	.st12{fill:#7FE5D8;}
	.st13{fill:#AF4AD1;}
	.st14{fill:#E02B7E;}
	.st15{fill:#E04038;}
	.st16{fill:#AFD7DD;}
	.st17{fill:#E0A010;}
	.st18{fill:#E0D5A4;}
	.st19{fill:#12B2B2;}
	.st20{fill:#12D66B;}
	.st21{fill:#E1A9FF;}
	.st22{fill:#1362A8;}
	.st23{fill:#E2378D;}
	.st24{fill:#E29C37;}
	.st25{fill:#E2B90E;}
	.st26{fill:#E2BF91;}
	.st27{fill:#E2CBAA;}
	.st28{fill:#14A594;}
	.st29{fill:#E4E9ED;}
	.st30{fill:#4A5D60;}
	.st31{fill:#E5B076;}
	.st32{fill:#E5B1C4;}
	.st33{fill:#E5E4C3;}
	.st34{fill:#4B6466;}
	.st35{fill:#E6FF2E;}
	.st36{fill:#18AA67;}
	.st37{fill:#E86207;}
	.st38{fill:#E8A113;}
	.st39{fill:#E8B5A6;}
	.st40{fill:#E8E8ED;}
	.st41{fill:#4E5154;}
	.st42{fill:#E9F1F4;}
	.st43{fill:#4F4B48;}
	.st44{fill:#4F74E8;}
	.st45{fill:#808E93;}
	.st46{fill:#80949B;}
	.st47{fill:#80EDAC;}
	.st48{fill:#B122E0;}
	.st49{fill:#B2C4CC;}
	.st50{fill:#83D839;}
	.st51{fill:#B3C6C6;}
	.st52{fill:none;stroke:#33363A;stroke-width:3;stroke-linecap:round;stroke-linejoin:round;stroke-miterlimit:10;}
	.st53{fill:#1A8E1C;}
	.st54{fill:#1A93D6;}
	.st55{fill:#B50B0B;}
	.st56{fill:#1AD88F;}
	.st57{fill:#B5DAF4;}
	.st58{fill:#EA7B1F;}
	.st59{fill:#EA81BD;}
	.st60{fill:#87B8D6;}
	.st61{fill:#87C3F4;}
	.st62{fill:#EAC79D;}
	.st63{fill:#EADF11;}
	.st64{fill:#EAE4C5;}
	.st65{fill:#B78094;}
	.st66{fill:#8844D8;}
	.st67{fill:#EBF4F7;}
	.st68{fill:#893015;}
	.st69{fill:#89410B;}
	.st70{fill:#899BA3;}
	.st71{fill:#EDE3B9;}
	.st72{enable-background:new    ;}
	.st73{fill:#50FF9F;}
	.st74{fill:#EEDCF4;}
	.st75{fill:#EFA37D;}
	.st76{fill:#EFA3CC;}
	.st77{fill:#EFC99A;}
	.st78{fill:#54AF79;}
	.st79{fill:#BA503A;}
	.st80{fill:#BA8663;}
	.st81{fill:#8B4FE0;}
	.st82{fill:#58ED9B;}
	.st83{fill:#BC7DFF;}
	.st84{fill:#8D9AA3;}
	.st85{fill:#BCCAD3;}
	.st86{fill:#8DE4FF;}
	.st87{fill:#20B518;}
	.st88{fill:#BF44F2;}
	.st89{fill:#21CEA1;}
	.st90{fill:#BFDAE0;}
	.st91{fill:#F0FBFC;}
	.st92{fill:#F2D9A7;}
	.st93{fill:#F2EAC9;}
	.st94{fill:#24D1AF;}
	.st95{fill:#25931C;}
	.st96{fill:#F4C4B3;}
	.st97{fill:#F4D3A2;}
	.st98{fill:#F4D647;}
	.st99{fill:#F4D7B8;}
	.st100{fill:#F4EC8E;}
	.st101{fill:#5B524D;}
	.st102{fill:#F77819;}
	.st103{fill:#F79AE1;}
	.st104{fill:#5E707A;}
	.st105{fill:#F93585;}
	.st106{fill:#F95D5D;}
	.st107{fill:#F9C19B;}
	.st108{fill:#F9CB58;}
	.st109{fill:#F9D2B2;}
	.st110{fill:#F9F07D;}
	.st111{fill:#F9F1D2;}
	.st112{fill:#F9F4B7;}
	.st113{fill:#F9F9E4;}
	.st114{fill:#5F1DAA;}
	.st115{fill:#5F9AD6;}
	.st116{fill:#C0C0C4;}
	.st117{fill:#91EA57;}
	.st118{fill:#C12727;}
	.st119{fill:#C191A0;}
	.st120{fill:#923BB7;}
	.st121{fill:#93A0A3;}
	.st122{fill:#93F9EA;}
	.st123{fill:#93FF5A;}
	.st124{fill:#C4833D;}
	.st125{fill:#95A2A5;}
	.st126{fill:#965514;}
	.st127{fill:#96562C;}
	.st128{fill:#2AF42F;}
	.st129{fill:#C5D7DD;}
	.st130{fill:#C68510;}
	.st131{fill:#C6A86D;}
	.st132{fill:#C6BB8D;}
	.st133{fill:#2C9DCE;}
	.st134{fill:#FBFCF2;}
	.st135{fill:#FC70B0;}
	.st136{fill:#FCE6C8;}
	.st137{fill:#FCF7E3;}
	.st138{fill:#C90D6B;}
	.st139{fill:#FDFEFF;}
	.st140{fill:#FDFFDC;}
	.st141{fill:#FF1A1A;}
	.st142{fill:#FF5252;}
	.st143{fill:#FF5B00;}
	.st144{fill:#FF6155;}
	.st145{fill:#FF630D;}
	.st146{fill:#FF6666;}
	.st147{fill:#FF7676;}
	.st148{fill:#FF7900;}
	.st149{fill:#FF860D;}
	.st150{fill:#FF8B00;}
	.st151{fill:#FF8F8F;}
	.st152{fill:#FF900B;}
	.st153{fill:#FF908A;}
	.st154{fill:#FF960B;}
	.st155{fill:#FF9C0D;}
	.st156{fill:#FFA9D4;}
	.st157{fill:#FFAA00;}
	.st158{fill:#FFAD40;}
	.st159{fill:#FFAF10;}
	.st160{fill:#FFB000;}
	.st161{fill:#FFBE08;}
	.st162{fill:#FFBF31;}
	.st163{fill:#FFC200;}
	.st164{fill:#FFCAE8;}
	.st165{fill:#FFCCF5;}
	.st166{fill:#FFD00B;}
	.st167{fill:#FFD039;}
	.st168{fill:#FFD400;}
	.st169{fill:#FFD833;}
	.st170{fill:#FFDB80;}
	.st171{fill:#FFDDD2;}
	.st172{fill:#FFE6D4;}
	.st173{fill:#FFE6EB;}
	.st174{fill:#FFE98D;}
	.st175{fill:#FFECD2;}
	.st176{fill:#FFF1D9;}
	.st177{fill:#FFF24D;}
	.st178{fill:#FFF3C2;}
	.st179{fill:#FFF4C7;}
	.st180{fill:#FFF800;}
	.st181{fill:#FFF80D;}
	.st182{fill:#FFF9DE;}
	.st183{fill:#FFFBD7;}
	.st184{fill:#FFFBEB;}
	.st185{fill:#FFFCC0;}
	.st186{fill:#FFFCDC;}
	.st187{fill:#FFFFFA;}
	.st188{fill:#FFFFFF;}
	.st189{fill:#63797F;}
	.st190{fill:#65E529;}
	.st191{fill:#66310E;}
	.st192{fill:#663C17;}
	.st193{fill:#9A5AE5;}
	.st194{fill:#CA30EF;}
	.st195{fill:#6892FC;}
	.st196{fill:#9CFFC4;}
	.st197{fill:#CC4306;}
	.st198{fill:#CC549E;}
	.st199{fill:#9E3256;}
	.st200{fill:#CDFFBB;}
	.st201{fill:#CE86AF;}
	.st202{fill:#CED9DD;}
	
		.st203{fill:none;stroke:#33363A;stroke-width:3;stroke-linecap:round;stroke-linejoin:round;stroke-miterlimit:10;stroke-dasharray:6;}
	.st204{fill:#CFE1E2;}
	.st205{fill:#33363A;}
	.st206{fill:#34C166;}
	.st207{fill:#364B5B;}
	.st208{fill:#3662CE;}
	.st209{fill:#36C6FF;}
	.st210{fill:#6ADB9A;}
	.st211{fill:#6D5C4D;}
	.st212{fill:#6EBDF9;}
	.st213{fill:#0031FF;}
	.st214{fill:#0062FF;}
	.st215{fill:#0068FF;}
	.st216{fill:#0086FF;}
	.st217{fill:#009BE8;}
	.st218{fill:#00AAFF;}
	.st219{fill:#D271FF;}
	.st220{fill:#D363A9;}
	.st221{fill:#D3964C;}
	.st222{fill:#D3DFE2;}
	.st223{fill:#D3E0E2;}
	.st224{fill:#D3EFF4;}
	.st225{fill:#063B66;}
	.st226{fill:#D60909;}
	.st227{fill:#D61D1D;}
	.st228{fill:#D7F0FF;}
	.st229{fill:#09B285;}
	.st230{fill:#D8D593;}
	.st231{fill:#D8E2EA;}
	.st232{fill:#D8E5EA;}
	.st233{fill:#3E5054;}
	.st234{fill:#D988FF;}
	.st235{fill:#D9E7E8;}
	.st236{fill:#702252;}
	.st237{fill:#70D3E0;}
	.st238{fill:#A02FF2;}
	.st239{fill:#A2F255;}
	.st240{fill:#A35616;}
	.st241{fill:#A3CCCC;}
	.st242{fill:#0A6ADD;}
	.st243{fill:#A5145D;}
	.st244{fill:#A57555;}
	.st245{fill:#77D6FC;}
	.st246{fill:#7815CE;}
	.st247{fill:#A7BBC1;}
	.st248{fill:#DBD279;}
	.st249{fill:#0D5C9E;}
	.st250{fill:#A83C11;}
	.st251{fill:#A8633D;}
	.st252{fill:#A8A3E5;}
	.st253{fill:#DCE6EA;}
	.st254{fill:#DCE7EA;}
	.st255{fill:#A962E8;}
	.st256{fill:#DD2466;}
	.st257{fill:#DDC38A;}
	.st258{fill:#DDD2B1;}
	.st259{fill:#DFE7E8;}
	.st260{fill:#42B1E8;}
	.st261{fill:#436377;}
	.st262{fill:#43B530;}
]]></style><path class="st150" d="M44.822 72.283c4.518-4.517 6.627-10.515 6.377-16.431-5.916-.249-11.913 1.86-16.43 6.376-4.518 4.518-6.627 10.515-6.376 16.431 5.916.25 11.913-1.858 16.429-6.376z" fill="#FF8B00"/><path class="st205" d="M29.335 80.179c-.001 0-.001 0 0 0-.335 0-.671-.007-1.005-.021a1.5 1.5 0 0 1-1.435-1.436c-.278-6.548 2.206-12.946 6.814-17.555 4.643-4.643 10.958-7.092 17.553-6.814a1.5 1.5 0 0 1 1.436 1.436c.277 6.55-2.207 12.948-6.815 17.555-4.407 4.408-10.284 6.835-16.548 6.835zM49.711 57.34c-5.257.138-10.168 2.237-13.881 5.949-3.681 3.682-5.807 8.677-5.949 13.883 5.258-.136 10.168-2.236 13.88-5.949 3.682-3.681 5.807-8.676 5.95-13.883z" fill="#33363A"/><path class="st150" d="M90.177 72.283c-4.517-4.517-6.626-10.515-6.377-16.431 5.917-.249 11.913 1.86 16.431 6.376 4.518 4.518 6.626 10.515 6.376 16.431-5.917.25-11.913-1.858-16.43-6.376z" fill="#FF8B00"/><path class="st205" d="M105.666 80.179c-6.265 0-12.142-2.427-16.55-6.835-4.607-4.606-7.091-11.005-6.815-17.555a1.502 1.502 0 0 1 1.436-1.436c6.6-.273 12.91 2.172 17.554 6.814 4.607 4.607 7.091 11.006 6.814 17.555a1.502 1.502 0 0 1-1.435 1.436c-.335.014-.67.021-1.004.021zM85.288 57.34c.144 5.208 2.269 10.202 5.949 13.883 3.713 3.713 8.624 5.812 13.881 5.949-.143-5.207-2.268-10.202-5.948-13.883-3.713-3.711-8.625-5.811-13.882-5.949z" fill="#33363A"/><g><path class="st34" fill="#4B6466" d="M67.501 83.196L8.038 94.301l5.211 29.861h108.503l5.21-29.861z"/><path class="st142" fill="#FF5252" d="M67.501 83.196L8.038 94.301l5.211 29.861h108.503l5.21-29.861z"/><path class="st141" fill="#FF1A1A" d="M67.501 100.411l-59.463-6.11 5.211 29.861h108.503l5.21-29.861z"/><path class="st205" d="M121.752 125.662H13.249a1.5 1.5 0 0 1-1.478-1.242l-5.21-29.861a1.5 1.5 0 0 1 1.202-1.732l59.463-11.104c.182-.033.369-.033.551 0l59.461 11.104a1.5 1.5 0 0 1 1.202 1.732l-5.21 29.861a1.5 1.5 0 0 1-1.478 1.242zm-107.242-3h105.981l4.738-27.159L67.5 84.723 9.77 95.503l4.74 27.159z" fill="#33363A"/><g><path class="st75" fill="#EFA37D" d="M53.83 59.01l-.13 30.912 13.8 33.557 13.801-33.557-.129-30.912z"/><path class="st216" fill="#0086FF" d="M76.578 101.405H58.423l8.821 21.45h.513z"/><path class="st205" d="M67.757 124.355h-.513a1.499 1.499 0 0 1-1.387-.93l-8.821-21.45a1.501 1.501 0 0 1 1.387-2.07h18.155a1.499 1.499 0 0 1 1.387 2.07l-8.821 21.45c-.231.563-.779.93-1.387.93zm-7.095-21.45l6.839 16.63 6.839-16.63H60.662z" fill="#33363A"/><path class="st107" fill="#F9C19B" d="M53.83 59.01l-.13 30.912 13.8 2.957 13.801-2.957-.129-30.912z"/><path class="st75" d="M81.172 59.01H53.83l-1.5 17.625 10.447 8.549A7.446 7.446 0 0 0 67.5 86.87a7.445 7.445 0 0 0 4.724-1.686l10.448-8.547-1.5-17.627z" fill="#EFA37D"/><path class="st205" d="M67.5 124.979a1.499 1.499 0 0 1-1.387-.93l-13.8-33.557a1.5 1.5 0 0 1-.113-.576l.13-30.912a1.5 1.5 0 0 1 1.5-1.494h27.342a1.5 1.5 0 0 1 1.5 1.494l.129 30.912c.001.197-.038.394-.113.576l-13.801 33.557a1.5 1.5 0 0 1-1.387.93zm-12.298-35.35L67.5 119.535l12.299-29.906-.121-29.119H55.324l-.122 29.119z" fill="#33363A"/></g><g><path class="st162" d="M92.818 36.834c0 12.705-11.335 23.004-25.318 23.004-13.982 0-25.318-10.299-25.318-23.004S53.518 10.838 67.5 10.838c13.983 0 25.318 13.291 25.318 25.996z" fill="#FFBF31"/><path class="st150" d="M92.818 36.834c0 12.705-11.335 23.004-25.318 23.004-13.982 0-25.318-10.299-25.318-23.004S53.518 16.713 67.5 16.713c13.983 0 25.318 7.416 25.318 20.121z" fill="#FF8B00"/><path class="st205" d="M67.5 61.338c-14.788 0-26.818-10.992-26.818-24.504 0-12.979 11.469-27.496 26.818-27.496 12.66 0 26.818 11.759 26.818 27.496 0 13.512-12.03 24.504-26.818 24.504zm0-49c-11.243 0-23.818 10.476-23.818 24.496 0 11.857 10.685 21.504 23.818 21.504s23.818-9.646 23.818-21.504c0-14.021-12.575-24.496-23.818-24.496z" fill="#33363A"/><path class="st107" d="M47.489 56.031a7.073 7.073 0 0 1 0-14.145" fill="#F9C19B"/><path class="st205" d="M47.489 57.531c-4.728 0-8.573-3.846-8.573-8.572 0-4.728 3.846-8.573 8.573-8.573a1.5 1.5 0 1 1 0 3 5.58 5.58 0 0 0-5.573 5.573 5.58 5.58 0 0 0 5.573 5.572 1.5 1.5 0 1 1 0 3z" fill="#33363A"/><g><path class="st107" d="M87.512 41.886a7.073 7.073 0 0 1 0 14.145" fill="#F9C19B"/><path class="st205" d="M87.512 57.531a1.5 1.5 0 1 1 0-3 5.58 5.58 0 0 0 5.573-5.572 5.58 5.58 0 0 0-5.573-5.573 1.5 1.5 0 1 1 0-3c4.728 0 8.573 3.846 8.573 8.573s-3.846 8.572-8.573 8.572z" fill="#33363A"/></g><g><path class="st75" d="M82.169 33.406l-13.362-2.379a7.538 7.538 0 0 0-2.612 0l-13.361 2.379a7.457 7.457 0 0 0-6.152 7.344v19.509a7.458 7.458 0 0 0 2.735 5.774l13.361 13.432a7.44 7.44 0 0 0 4.723 1.686 7.44 7.44 0 0 0 4.724-1.686l13.362-13.432a7.46 7.46 0 0 0 2.734-5.774V40.75a7.459 7.459 0 0 0-6.152-7.344z" fill="#EFA37D"/><path class="st107" d="M82.169 33.406l-13.362 6.475a7.538 7.538 0 0 0-2.612 0l-13.361-6.475a7.457 7.457 0 0 0-6.152 7.344v19.509a7.458 7.458 0 0 0 2.735 5.774l13.361 13.432a7.44 7.44 0 0 0 4.723 1.686 7.44 7.44 0 0 0 4.724-1.686l13.362-13.432a7.46 7.46 0 0 0 2.734-5.774V40.75a7.459 7.459 0 0 0-6.152-7.344z" fill="#F9C19B"/><path class="st75" d="M67.5 81.15a7.44 7.44 0 0 0 4.724-1.686l13.362-13.432a7.46 7.46 0 0 0 2.734-5.774V40.75a7.458 7.458 0 0 0-6.151-7.344l-13.362-2.379c-.864-.152-.441-.152-1.307 0" fill="#EFA37D"/><path class="st205" d="M67.5 82.65a8.978 8.978 0 0 1-5.673-2.025 1.22 1.22 0 0 1-.113-.103l-13.31-13.38a8.927 8.927 0 0 1-3.224-6.884V40.75c0-4.35 3.108-8.06 7.39-8.82l13.361-2.379a9.02 9.02 0 0 1 3.135-.001l13.365 2.38a8.948 8.948 0 0 1 7.389 8.82v19.509a8.926 8.926 0 0 1-3.223 6.884l-13.311 13.38a1.84 1.84 0 0 1-.113.103A8.973 8.973 0 0 1 67.5 82.65zm-3.716-4.3c2.103 1.681 5.334 1.679 7.434 0l13.305-13.374a1.84 1.84 0 0 1 .113-.103 5.945 5.945 0 0 0 2.185-4.614V40.75a5.95 5.95 0 0 0-4.914-5.867l-13.362-2.379a6.106 6.106 0 0 0-2.089.001l-13.359 2.378a5.952 5.952 0 0 0-4.915 5.867v19.509c0 1.795.796 3.477 2.186 4.613.04.033.077.067.113.104L63.784 78.35z" fill="#33363A"/></g></g><g><path class="st205" d="M24.545 125.662a1.5 1.5 0 0 1-1.358-.86l-5.333-11.309a1.5 1.5 0 0 1 2.714-1.279l5.333 11.309a1.5 1.5 0 0 1-1.356 2.139z" fill="#33363A"/><path class="st205" d="M110.456 125.662a1.5 1.5 0 0 1-1.356-2.14l5.333-11.309a1.5 1.5 0 1 1 2.714 1.279l-5.333 11.309a1.498 1.498 0 0 1-1.358.861z" fill="#33363A"/></g><g><path class="st162" d="M67.5 17.532c-11.517 0-20.852 9.335-20.852 20.852h41.703c.001-11.517-9.335-20.852-20.851-20.852z" fill="#FFBF31"/><path class="st150" d="M67.5 23.503c-9.441 0-17.412 6.274-19.979 14.881H87.48c-2.569-8.607-10.54-14.881-19.98-14.881z" fill="#FF8B00"/><path class="st205" d="M88.352 39.884H46.648a1.5 1.5 0 1 1 0-3h41.703a1.5 1.5 0 0 1 .001 3z" fill="#33363A"/></g></g><g><path class="st212" d="M82.671 113.938c0-6.92 5.612-12.533 12.532-12.533 6.921 0 12.532 5.613 12.532 12.533" fill="#6EBDF9"/><path class="st216" d="M82.671 113.938c0-5.299 5.612-9.601 12.532-9.601 6.921 0 12.532 4.302 12.532 9.601" fill="#0086FF"/><path class="st188" fill="#FFF" d="M107.735 113.938H82.671"/><path class="st253" fill="#DCE6EA" d="M107.735 113.938H82.671"/><path class="st205" d="M107.735 115.438a1.5 1.5 0 0 1-1.5-1.5c0-6.084-4.949-11.033-11.032-11.033s-11.032 4.949-11.032 11.033a1.5 1.5 0 1 1-3 0c0-7.738 6.295-14.033 14.032-14.033s14.032 6.295 14.032 14.033a1.5 1.5 0 0 1-1.5 1.5z" fill="#33363A"/><path class="st205" d="M107.735 115.438H82.671a1.5 1.5 0 1 1 0-3h25.064a1.5 1.5 0 1 1 0 3z" fill="#33363A"/><circle class="st188" cx="95.202" cy="113.964" r="4.143" fill="#FFF"/><path class="st232" d="M92.272 116.894a4.143 4.143 0 0 1 5.859-5.858" fill="#D8E5EA"/><path class="st205" d="M95.203 119.608a5.61 5.61 0 0 1-3.991-1.654c-1.065-1.063-1.652-2.48-1.652-3.988s.586-2.925 1.652-3.991a5.61 5.61 0 0 1 3.992-1.653c1.508 0 2.925.588 3.99 1.654a5.605 5.605 0 0 1 1.653 3.992 5.59 5.59 0 0 1-1.655 3.987 5.598 5.598 0 0 1-3.989 1.653zm0-8.287c-.706 0-1.371.275-1.87.774a2.626 2.626 0 0 0-.773 1.87c0 .706.274 1.368.773 1.866 1.001 1.002 2.741 1.001 3.738.002.501-.5.775-1.162.776-1.867 0-.707-.275-1.371-.775-1.871a2.632 2.632 0 0 0-1.869-.774z" fill="#33363A"/></g><metadata><rdf:RDF xmlns:rdf="http://www.w3.org/1999/02/22-rdf-syntax-ns#" xmlns:rdfs="http://www.w3.org/2000/01/rdf-schema#" xmlns:dc="http://purl.org/dc/elements/1.1/"><rdf:Description about="https://iconscout.com/legal#licenses" dc:title="pokemon,trainer,girl" dc:description="pokemon,trainer,girl" dc:publisher="Iconscout" dc:date="2018-01-30" dc:format="image/svg+xml" dc:language="en"><dc:creator><rdf:Bag><rdf:li>Roundicons.com</rdf:li></rdf:Bag></dc:creator></rdf:Description></rdf:RDF></metadata></svg>