<?xml version="1.0" encoding="UTF-8"?><!DOCTYPE svg PUBLIC "-//W3C//DTD SVG 1.1//EN" "http://www.w3.org/Graphics/SVG/1.1/DTD/svg11.dtd"><svg xmlns="http://www.w3.org/2000/svg" xmlns:xlink="http://www.w3.org/1999/xlink" version="1.1" id="Layer_1" x="0px" y="0px" width="135px" height="135px" viewBox="0 0 135 135" xml:space="preserve"><style type="text/css"><![CDATA[
	.st0{fill:#465652;}
	.st1{fill:#AAB9BA;}
	.st2{fill:#47C67B;}
	.st3{fill:#AAC8D1;}
	.st4{fill:none;stroke:#E83834;stroke-width:6;stroke-linecap:round;stroke-linejoin:round;stroke-miterlimit:10;}
	.st5{fill:#7BC67B;}
	.st6{fill:#7BC7FF;}
	.st7{fill:#7C34C1;}
	.st8{fill:#7C8D96;}
	.st9{fill:#AD2707;}
	.st10{fill:#ADB8BC;}
	.st11{fill:#107510;}
	.st12{fill:#7FE5D8;}
	.st13{fill:#AF4AD1;}
	.st14{fill:#E02B7E;}
	.st15{fill:#E04038;}
	.st16{fill:#AFD7DD;}
	.st17{fill:#E0A010;}
	.st18{fill:#E0D5A4;}
	.st19{fill:#12B2B2;}
	.st20{fill:#12D66B;}
	.st21{fill:#E1A9FF;}
	.st22{fill:#1362A8;}
	.st23{fill:#E2378D;}
	.st24{fill:#E29C37;}
	.st25{fill:#E2B90E;}
	.st26{fill:#E2BF91;}
	.st27{fill:#E2CBAA;}
	.st28{fill:#14A594;}
	.st29{fill:#E4E9ED;}
	.st30{fill:#4A5D60;}
	.st31{fill:#E5B076;}
	.st32{fill:#E5B1C4;}
	.st33{fill:#E5E4C3;}
	.st34{fill:#4B6466;}
	.st35{fill:#E6FF2E;}
	.st36{fill:#18AA67;}
	.st37{fill:#E86207;}
	.st38{fill:#E8A113;}
	.st39{fill:#E8B5A6;}
	.st40{fill:#E8E8ED;}
	.st41{fill:#4E5154;}
	.st42{fill:#E9F1F4;}
	.st43{fill:#4F4B48;}
	.st44{fill:#4F74E8;}
	.st45{fill:#808E93;}
	.st46{fill:#80949B;}
	.st47{fill:#80EDAC;}
	.st48{fill:#B122E0;}
	.st49{fill:#B2C4CC;}
	.st50{fill:#83D839;}
	.st51{fill:#B3C6C6;}
	.st52{fill:none;stroke:#33363A;stroke-width:3;stroke-linecap:round;stroke-linejoin:round;stroke-miterlimit:10;}
	.st53{fill:#1A8E1C;}
	.st54{fill:#1A93D6;}
	.st55{fill:#B50B0B;}
	.st56{fill:#1AD88F;}
	.st57{fill:#B5DAF4;}
	.st58{fill:#EA7B1F;}
	.st59{fill:#EA81BD;}
	.st60{fill:#87B8D6;}
	.st61{fill:#87C3F4;}
	.st62{fill:#EAC79D;}
	.st63{fill:#EADF11;}
	.st64{fill:#EAE4C5;}
	.st65{fill:#B78094;}
	.st66{fill:#8844D8;}
	.st67{fill:#EBF4F7;}
	.st68{fill:#893015;}
	.st69{fill:#89410B;}
	.st70{fill:#899BA3;}
	.st71{fill:#EDE3B9;}
	.st72{enable-background:new    ;}
	.st73{fill:#50FF9F;}
	.st74{fill:#EEDCF4;}
	.st75{fill:#EFA37D;}
	.st76{fill:#EFA3CC;}
	.st77{fill:#EFC99A;}
	.st78{fill:#54AF79;}
	.st79{fill:#BA503A;}
	.st80{fill:#BA8663;}
	.st81{fill:#8B4FE0;}
	.st82{fill:#58ED9B;}
	.st83{fill:#BC7DFF;}
	.st84{fill:#8D9AA3;}
	.st85{fill:#BCCAD3;}
	.st86{fill:#8DE4FF;}
	.st87{fill:#20B518;}
	.st88{fill:#BF44F2;}
	.st89{fill:#21CEA1;}
	.st90{fill:#BFDAE0;}
	.st91{fill:#F0FBFC;}
	.st92{fill:#F2D9A7;}
	.st93{fill:#F2EAC9;}
	.st94{fill:#24D1AF;}
	.st95{fill:#25931C;}
	.st96{fill:#F4C4B3;}
	.st97{fill:#F4D3A2;}
	.st98{fill:#F4D647;}
	.st99{fill:#F4D7B8;}
	.st100{fill:#F4EC8E;}
	.st101{fill:#5B524D;}
	.st102{fill:#F77819;}
	.st103{fill:#F79AE1;}
	.st104{fill:#5E707A;}
	.st105{fill:#F93585;}
	.st106{fill:#F95D5D;}
	.st107{fill:#F9C19B;}
	.st108{fill:#F9CB58;}
	.st109{fill:#F9D2B2;}
	.st110{fill:#F9F07D;}
	.st111{fill:#F9F1D2;}
	.st112{fill:#F9F4B7;}
	.st113{fill:#F9F9E4;}
	.st114{fill:#5F1DAA;}
	.st115{fill:#5F9AD6;}
	.st116{fill:#C0C0C4;}
	.st117{fill:#91EA57;}
	.st118{fill:#C12727;}
	.st119{fill:#C191A0;}
	.st120{fill:#923BB7;}
	.st121{fill:#93A0A3;}
	.st122{fill:#93F9EA;}
	.st123{fill:#93FF5A;}
	.st124{fill:#C4833D;}
	.st125{fill:#95A2A5;}
	.st126{fill:#965514;}
	.st127{fill:#96562C;}
	.st128{fill:#2AF42F;}
	.st129{fill:#C5D7DD;}
	.st130{fill:#C68510;}
	.st131{fill:#C6A86D;}
	.st132{fill:#C6BB8D;}
	.st133{fill:#2C9DCE;}
	.st134{fill:#FBFCF2;}
	.st135{fill:#FC70B0;}
	.st136{fill:#FCE6C8;}
	.st137{fill:#FCF7E3;}
	.st138{fill:#C90D6B;}
	.st139{fill:#FDFEFF;}
	.st140{fill:#FDFFDC;}
	.st141{fill:#FF1A1A;}
	.st142{fill:#FF5252;}
	.st143{fill:#FF5B00;}
	.st144{fill:#FF6155;}
	.st145{fill:#FF630D;}
	.st146{fill:#FF6666;}
	.st147{fill:#FF7676;}
	.st148{fill:#FF7900;}
	.st149{fill:#FF860D;}
	.st150{fill:#FF8B00;}
	.st151{fill:#FF8F8F;}
	.st152{fill:#FF900B;}
	.st153{fill:#FF908A;}
	.st154{fill:#FF960B;}
	.st155{fill:#FF9C0D;}
	.st156{fill:#FFA9D4;}
	.st157{fill:#FFAA00;}
	.st158{fill:#FFAD40;}
	.st159{fill:#FFAF10;}
	.st160{fill:#FFB000;}
	.st161{fill:#FFBE08;}
	.st162{fill:#FFBF31;}
	.st163{fill:#FFC200;}
	.st164{fill:#FFCAE8;}
	.st165{fill:#FFCCF5;}
	.st166{fill:#FFD00B;}
	.st167{fill:#FFD039;}
	.st168{fill:#FFD400;}
	.st169{fill:#FFD833;}
	.st170{fill:#FFDB80;}
	.st171{fill:#FFDDD2;}
	.st172{fill:#FFE6D4;}
	.st173{fill:#FFE6EB;}
	.st174{fill:#FFE98D;}
	.st175{fill:#FFECD2;}
	.st176{fill:#FFF1D9;}
	.st177{fill:#FFF24D;}
	.st178{fill:#FFF3C2;}
	.st179{fill:#FFF4C7;}
	.st180{fill:#FFF800;}
	.st181{fill:#FFF80D;}
	.st182{fill:#FFF9DE;}
	.st183{fill:#FFFBD7;}
	.st184{fill:#FFFBEB;}
	.st185{fill:#FFFCC0;}
	.st186{fill:#FFFCDC;}
	.st187{fill:#FFFFFA;}
	.st188{fill:#FFFFFF;}
	.st189{fill:#63797F;}
	.st190{fill:#65E529;}
	.st191{fill:#66310E;}
	.st192{fill:#663C17;}
	.st193{fill:#9A5AE5;}
	.st194{fill:#CA30EF;}
	.st195{fill:#6892FC;}
	.st196{fill:#9CFFC4;}
	.st197{fill:#CC4306;}
	.st198{fill:#CC549E;}
	.st199{fill:#9E3256;}
	.st200{fill:#CDFFBB;}
	.st201{fill:#CE86AF;}
	.st202{fill:#CED9DD;}
	
		.st203{fill:none;stroke:#33363A;stroke-width:3;stroke-linecap:round;stroke-linejoin:round;stroke-miterlimit:10;stroke-dasharray:6;}
	.st204{fill:#CFE1E2;}
	.st205{fill:#33363A;}
	.st206{fill:#34C166;}
	.st207{fill:#364B5B;}
	.st208{fill:#3662CE;}
	.st209{fill:#36C6FF;}
	.st210{fill:#6ADB9A;}
	.st211{fill:#6D5C4D;}
	.st212{fill:#6EBDF9;}
	.st213{fill:#0031FF;}
	.st214{fill:#0062FF;}
	.st215{fill:#0068FF;}
	.st216{fill:#0086FF;}
	.st217{fill:#009BE8;}
	.st218{fill:#00AAFF;}
	.st219{fill:#D271FF;}
	.st220{fill:#D363A9;}
	.st221{fill:#D3964C;}
	.st222{fill:#D3DFE2;}
	.st223{fill:#D3E0E2;}
	.st224{fill:#D3EFF4;}
	.st225{fill:#063B66;}
	.st226{fill:#D60909;}
	.st227{fill:#D61D1D;}
	.st228{fill:#D7F0FF;}
	.st229{fill:#09B285;}
	.st230{fill:#D8D593;}
	.st231{fill:#D8E2EA;}
	.st232{fill:#D8E5EA;}
	.st233{fill:#3E5054;}
	.st234{fill:#D988FF;}
	.st235{fill:#D9E7E8;}
	.st236{fill:#702252;}
	.st237{fill:#70D3E0;}
	.st238{fill:#A02FF2;}
	.st239{fill:#A2F255;}
	.st240{fill:#A35616;}
	.st241{fill:#A3CCCC;}
	.st242{fill:#0A6ADD;}
	.st243{fill:#A5145D;}
	.st244{fill:#A57555;}
	.st245{fill:#77D6FC;}
	.st246{fill:#7815CE;}
	.st247{fill:#A7BBC1;}
	.st248{fill:#DBD279;}
	.st249{fill:#0D5C9E;}
	.st250{fill:#A83C11;}
	.st251{fill:#A8633D;}
	.st252{fill:#A8A3E5;}
	.st253{fill:#DCE6EA;}
	.st254{fill:#DCE7EA;}
	.st255{fill:#A962E8;}
	.st256{fill:#DD2466;}
	.st257{fill:#DDC38A;}
	.st258{fill:#DDD2B1;}
	.st259{fill:#DFE7E8;}
	.st260{fill:#42B1E8;}
	.st261{fill:#436377;}
	.st262{fill:#43B530;}
]]></style><path class="st6" d="M113.698 33.818a3.094 3.094 0 0 1-3.094 3.094H63.292a3.095 3.095 0 0 1 0-6.189h47.312a3.095 3.095 0 0 1 3.094 3.095z" fill="#7BC7FF"/><path class="st205" d="M110.604 38.412H63.292c-2.533 0-4.594-2.061-4.594-4.594s2.061-4.595 4.594-4.595h47.312c2.533 0 4.594 2.062 4.594 4.595s-2.061 4.594-4.594 4.594zm-47.312-6.188a1.596 1.596 0 0 0 0 3.189h47.312a1.596 1.596 0 0 0 0-3.189H63.292z" fill="#33363A"/><path class="st80" d="M90.384 36.347c0 10.335-8.377 18.712-18.711 18.712h-8.346c-10.334 0-18.711-8.377-18.711-18.712v-4.938c0-10.334 8.377-18.711 18.711-18.711h8.346c10.334 0 18.711 8.377 18.711 18.711v4.938z" fill="#BA8663"/><path class="st244" d="M90.384 41.097c0 10.335-8.377 18.712-18.711 18.712h-8.346c-10.334 0-18.711-8.377-18.711-18.712v-4.938c0-10.334 8.377-18.711 18.711-18.711h8.346c10.334 0 18.711 8.377 18.711 18.711v4.938z" fill="#A57555"/><path class="st205" d="M71.673 56.559h-8.346c-11.145 0-20.211-9.067-20.211-20.212v-4.938c0-11.145 9.066-20.211 20.211-20.211h8.346c11.145 0 20.211 9.066 20.211 20.211v4.938c0 11.144-9.067 20.212-20.211 20.212zm-8.346-42.362c-9.49 0-17.211 7.721-17.211 17.211v4.938c0 9.49 7.721 17.212 17.211 17.212h8.346c9.49 0 17.211-7.722 17.211-17.212v-4.938c0-9.49-7.721-17.211-17.211-17.211h-8.346z" fill="#33363A"/><path class="st34" fill="#4B6466" d="M67.501 74.791L5.538 93.398v32.61h123.924v-32.61z"/><path class="st6" fill="#7BC7FF" d="M67.501 74.791L5.538 93.398v32.61h123.924v-32.61z"/><path class="st19" fill="#12B2B2" d="M67.501 91.977L5.538 93.398v32.61h123.924v-32.61z"/><path class="st216" fill="#0086FF" d="M67.501 91.977L5.538 93.398v32.61h123.924v-32.61z"/><path class="st205" d="M129.462 127.508H5.538a1.5 1.5 0 0 1-1.5-1.5v-32.61c0-.662.434-1.246 1.068-1.437l61.963-18.607a1.51 1.51 0 0 1 .863 0l61.961 18.607a1.5 1.5 0 0 1 1.068 1.437v32.609a1.499 1.499 0 0 1-1.499 1.501zm-122.424-3h120.924V94.514L67.501 76.357 7.038 94.515v29.993z" fill="#33363A"/><path class="st205" fill="#33363A" d="M53.83 58.107L51.2 89.019l16.3 8.12 16.301-8.12-2.63-30.912z"/><path class="st205" d="M67.5 100.139c-.264 0-.527-.069-.762-.208l-16.3-9.62a1.499 1.499 0 0 1-.732-1.419l2.629-30.911a1.5 1.5 0 0 1 1.495-1.373h27.342a1.5 1.5 0 0 1 1.495 1.373l2.629 30.911a1.5 1.5 0 0 1-.732 1.419l-16.301 9.62a1.51 1.51 0 0 1-.763.208zM52.775 88.206l14.725 8.69 14.726-8.69-2.433-28.599H55.208l-2.433 28.599z" fill="#33363A"/><g><path class="st107" fill="#F9C19B" d="M53.83 58.107L51.2 89.019l16.3 2.958 16.301-2.958-2.63-30.912z"/></g><g><path class="st75" d="M81.171 58.107H53.83l-1.5 17.625 10.448 8.549a7.453 7.453 0 0 0 9.446 0l10.448-8.549-1.501-17.625z" fill="#EFA37D"/></g><g><path class="st205" d="M67.5 94.189c-.11 0-.221-.013-.33-.037l-16.3-3.671a1.499 1.499 0 0 1-1.165-1.59l2.629-30.911a1.5 1.5 0 0 1 1.495-1.373h27.342a1.5 1.5 0 0 1 1.495 1.373l2.629 30.911a1.5 1.5 0 0 1-1.165 1.59l-16.3 3.671c-.109.025-.22.037-.33.037zm-14.694-6.346l14.694 3.31 14.695-3.31-2.402-28.235H55.208l-2.402 28.235z" fill="#33363A"/></g><g><path class="st107" d="M45.603 52.629a7.739 7.739 0 0 1-7.739-7.74 7.74 7.74 0 0 1 7.739-7.739" fill="#F9C19B"/><path class="st205" d="M45.603 54.129c-5.095 0-9.239-4.146-9.239-9.24s4.145-9.239 9.239-9.239a1.5 1.5 0 1 1 0 3c-3.44 0-6.239 2.799-6.239 6.239s2.799 6.24 6.239 6.24a1.5 1.5 0 1 1 0 3z" fill="#33363A"/><g><path class="st107" d="M89.397 37.149a7.74 7.74 0 0 1 0 15.479" fill="#F9C19B"/><path class="st205" d="M89.397 54.129a1.5 1.5 0 1 1 0-3c3.44 0 6.24-2.8 6.24-6.24s-2.799-6.239-6.24-6.239a1.5 1.5 0 1 1 0-3c5.095 0 9.24 4.145 9.24 9.239s-4.145 9.24-9.24 9.24z" fill="#33363A"/></g><g><path class="st244" d="M82.168 30.002l-13.362-2.377a7.538 7.538 0 0 0-2.612 0l-13.361 2.377a7.46 7.46 0 0 0-6.152 7.344v22.01a7.454 7.454 0 0 0 2.736 5.774l13.361 10.932a7.447 7.447 0 0 0 4.723 1.687c1.675 0 3.35-.562 4.723-1.687L85.585 65.13a7.46 7.46 0 0 0 2.735-5.774v-22.01a7.459 7.459 0 0 0-6.152-7.344z" fill="#A57555"/><path class="st107" d="M82.168 30.002l-13.362 6.477a7.441 7.441 0 0 0-2.612 0l-13.361-6.477a7.46 7.46 0 0 0-6.152 7.344v22.01a7.454 7.454 0 0 0 2.736 5.774l13.361 10.932a7.447 7.447 0 0 0 4.723 1.687c1.675 0 3.35-.562 4.723-1.687L85.585 65.13a7.46 7.46 0 0 0 2.735-5.774v-22.01a7.459 7.459 0 0 0-6.152-7.344z" fill="#F9C19B"/><path class="st75" d="M67.5 77.748c1.675 0 3.35-.562 4.723-1.687L85.585 65.13a7.46 7.46 0 0 0 2.735-5.774v-22.01a7.46 7.46 0 0 0-6.152-7.344l-13.362-2.377c-.864-.152-.441-.152-1.306 0" fill="#EFA37D"/><path class="st205" d="M67.5 79.248a8.99 8.99 0 0 1-5.673-2.025L48.466 66.291a8.927 8.927 0 0 1-3.286-6.936v-22.01a1.5 1.5 0 1 1 3 0v22.01c0 1.796.796 3.478 2.186 4.613L63.727 74.9c2.125 1.738 5.425 1.738 7.546 0l13.363-10.932a5.939 5.939 0 0 0 2.185-4.613v-22.01a1.5 1.5 0 1 1 3 0v22.01a8.93 8.93 0 0 1-3.285 6.936L73.173 77.223a8.986 8.986 0 0 1-5.673 2.025z" fill="#33363A"/></g></g><g><path class="st205" d="M16.259 127.164a1.5 1.5 0 0 1-1.454-1.136l-5.333-21.307a1.5 1.5 0 1 1 2.91-.728l5.333 21.307a1.5 1.5 0 0 1-1.456 1.864z" fill="#33363A"/><path class="st205" d="M118.741 127.164a1.5 1.5 0 0 1-1.456-1.864l5.333-21.307a1.5 1.5 0 0 1 2.91.728l-5.333 21.307a1.5 1.5 0 0 1-1.454 1.136z" fill="#33363A"/></g><g><path class="st6" d="M78.109 8.992H56.891c-8.108 0-14.681 6.572-14.681 14.68v13.874h50.58V23.672c0-8.108-6.572-14.68-14.681-14.68z" fill="#7BC7FF"/><path class="st216" d="M78.109 15.725H56.891c-8.108 0-14.681 6.572-14.681 14.681v7.141h50.58v-7.141c0-8.109-6.572-14.681-14.681-14.681z" fill="#0086FF"/><path class="st205" d="M92.79 39.046H42.21a1.5 1.5 0 0 1-1.5-1.5V23.672c0-8.922 7.259-16.18 16.181-16.18H78.11c8.922 0 16.181 7.258 16.181 16.18v13.874a1.501 1.501 0 0 1-1.501 1.5zm-49.08-3h47.58V23.672c0-7.268-5.913-13.18-13.181-13.18H56.891c-7.268 0-13.181 5.912-13.181 13.18v12.374z" fill="#33363A"/><g><path class="st205" fill="#33363A" d="M61.5 26.636h12v4.67h-12z"/></g><g><path class="st205" d="M73.5 32.806h-12a1.5 1.5 0 0 1-1.5-1.5v-4.67a1.5 1.5 0 0 1 1.5-1.5h12a1.5 1.5 0 0 1 1.5 1.5v4.67a1.5 1.5 0 0 1-1.5 1.5zm-10.5-3h9v-1.67h-9v1.67z" fill="#33363A"/></g></g><g><path class="st205" d="M39.062 92.389a1.5 1.5 0 0 1-.285-2.973l12.834-2.5a1.5 1.5 0 1 1 .573 2.946l-12.834 2.5a1.576 1.576 0 0 1-.288.027z" fill="#33363A"/><path class="st205" d="M95.938 92.389c-.095 0-.191-.009-.288-.027l-12.834-2.5a1.501 1.501 0 0 1 .573-2.946l12.834 2.5a1.501 1.501 0 0 1-.285 2.973z" fill="#33363A"/></g><g><path class="st151" d="M49.376 118.524c0-10.009 8.115-18.124 18.123-18.124 10.009 0 18.124 8.115 18.124 18.124" fill="#FF8F8F"/><path class="st141" d="M49.376 118.524c0-7.662 8.115-13.885 18.123-13.885 10.009 0 18.124 6.223 18.124 13.885" fill="#FF1A1A"/><path class="st188" fill="#FFF" d="M85.624 118.524H49.376"/><path class="st253" fill="#DCE6EA" d="M85.624 118.524H49.376"/><path class="st205" d="M85.624 120.024a1.5 1.5 0 0 1-1.5-1.5c0-9.167-7.458-16.624-16.624-16.624-9.166 0-16.623 7.457-16.623 16.624a1.5 1.5 0 1 1-3 0c0-10.82 8.803-19.624 19.623-19.624 10.821 0 19.624 8.804 19.624 19.624a1.5 1.5 0 0 1-1.5 1.5z" fill="#33363A"/><path class="st205" d="M85.624 120.024H49.376a1.5 1.5 0 1 1 0-3h36.247a1.5 1.5 0 0 1 .001 3z" fill="#33363A"/><path class="st188" d="M71.736 114.326a5.988 5.988 0 0 1 0 8.472 5.991 5.991 0 1 1 0-8.472z" fill="#FFF"/><path class="st232" d="M63.262 122.798a5.991 5.991 0 0 1 8.474-8.472" fill="#D8E5EA"/><path class="st205" d="M67.5 126.055a7.446 7.446 0 0 1-5.299-2.196c-1.414-1.412-2.193-3.293-2.193-5.295s.779-3.884 2.193-5.298a7.442 7.442 0 0 1 5.298-2.195c2.002 0 3.883.78 5.297 2.196a7.437 7.437 0 0 1 2.194 5.299c0 2.001-.78 3.882-2.196 5.294a7.431 7.431 0 0 1-5.294 2.195zm0-11.985c-1.2 0-2.328.468-3.177 1.316a4.462 4.462 0 0 0-1.314 3.177c0 1.199.466 2.327 1.314 3.173.85.851 1.978 1.318 3.178 1.318s2.327-.468 3.174-1.316a4.454 4.454 0 0 0 1.317-3.174c0-1.2-.467-2.329-1.315-3.177a4.465 4.465 0 0 0-3.177-1.317z" fill="#33363A"/></g><metadata><rdf:RDF xmlns:rdf="http://www.w3.org/1999/02/22-rdf-syntax-ns#" xmlns:rdfs="http://www.w3.org/2000/01/rdf-schema#" xmlns:dc="http://purl.org/dc/elements/1.1/"><rdf:Description about="https://iconscout.com/legal#licenses" dc:title="pokemon,trainer,boy" dc:description="pokemon,trainer,boy" dc:publisher="Iconscout" dc:date="2018-01-30" dc:format="image/svg+xml" dc:language="en"><dc:creator><rdf:Bag><rdf:li>Roundicons.com</rdf:li></rdf:Bag></dc:creator></rdf:Description></rdf:RDF></metadata></svg>